<svg xmlns="http://www.w3.org/2000/svg" viewBox="0 0 1920 1080" width="1920" height="1080" preserveAspectRatio="xMidYMid slice">
	<defs>
		<linearGradient id="auroraSky" x1="0" y1="0" x2="0" y2="1">
			<stop offset="0%" stop-color="#0a0428"/>
			<stop offset="40%" stop-color="#1a2a5a"/>
			<stop offset="80%" stop-color="#2a0a3a"/>
			<stop offset="100%" stop-color="#0a0414"/>
		</linearGradient>
		<radialGradient id="divine" cx="50%" cy="40%" r="60%">
			<stop offset="0%" stop-color="#ffd9a8" stop-opacity="0.7"/>
			<stop offset="50%" stop-color="#b46aff" stop-opacity="0.35"/>
			<stop offset="100%" stop-color="#b46aff" stop-opacity="0"/>
		</radialGradient>
		<linearGradient id="auroraA" x1="0" y1="0" x2="1" y2="0">
			<stop offset="0%"   stop-color="#7df07d" stop-opacity="0"/>
			<stop offset="30%"  stop-color="#7df07d" stop-opacity="0.7"/>
			<stop offset="70%"  stop-color="#7ddef0" stop-opacity="0.7"/>
			<stop offset="100%" stop-color="#b46aff" stop-opacity="0"/>
		</linearGradient>
		<linearGradient id="auroraB" x1="0" y1="0" x2="1" y2="0">
			<stop offset="0%"   stop-color="#b46aff" stop-opacity="0"/>
			<stop offset="40%"  stop-color="#ff7df0" stop-opacity="0.65"/>
			<stop offset="80%"  stop-color="#7df0ff" stop-opacity="0.55"/>
			<stop offset="100%" stop-color="#7df07d" stop-opacity="0"/>
		</linearGradient>
		<linearGradient id="bifrostFS" x1="0" y1="0" x2="1" y2="0">
			<stop offset="0%" stop-color="#ff7df0" stop-opacity="0.85"/>
			<stop offset="50%" stop-color="#fff8d4" stop-opacity="0.85"/>
			<stop offset="100%" stop-color="#7d8af0" stop-opacity="0.85"/>
		</linearGradient>
		<linearGradient id="mountainFS" x1="0" y1="0" x2="0" y2="1">
			<stop offset="0%" stop-color="#3a2a6a"/>
			<stop offset="100%" stop-color="#0a0414"/>
		</linearGradient>
	</defs>
	<rect width="1920" height="1080" fill="url(#auroraSky)"/>
	<path d="M-50,200 Q480,80 960,220 Q1440,360 1980,180 L1980,330 Q1440,510 960,360 Q480,210 -50,360 Z" fill="url(#auroraA)"/>
	<path d="M-50,420 Q480,280 960,440 Q1440,600 1980,400 L1980,560 Q1440,720 960,580 Q480,440 -50,580 Z" fill="url(#auroraB)" opacity="0.8"/>
	<ellipse cx="960" cy="420" rx="900" ry="500" fill="url(#divine)"/>
	<path d="M-100,820 Q960,220 2020,820" fill="none" stroke="url(#bifrostFS)" stroke-width="80" opacity="0.85"/>
	<path d="M-100,820 Q960,260 2020,820" fill="none" stroke="#fff8d4" stroke-width="14" opacity="0.6"/>
	<g fill="#fff8d4">
		<circle cx="180" cy="120" r="2.5"/><circle cx="320" cy="60" r="2"/>
		<circle cx="520" cy="140" r="3"/><circle cx="720" cy="80" r="2"/>
		<circle cx="1100" cy="100" r="2.5"/><circle cx="1280" cy="60" r="2"/>
		<circle cx="1480" cy="130" r="3"/><circle cx="1680" cy="90" r="2"/>
		<circle cx="240" cy="240" r="1.5"/><circle cx="1620" cy="220" r="1.5"/>
	</g>
	<path d="M0,820 L160,620 L280,740 L420,540 L600,720 L780,560 L960,680 L1140,560 L1320,720 L1500,540 L1640,740 L1760,620 L1920,820 L1920,1080 L0,1080 Z" fill="url(#mountainFS)"/>
	<g fill="#ffd9ff" opacity="0.5">
		<polygon points="420,540 450,580 390,580"/>
		<polygon points="780,560 810,600 750,600"/>
		<polygon points="1140,560 1170,600 1110,600"/>
		<polygon points="1500,540 1530,580 1470,580"/>
	</g>
	<path d="M0,960 Q480,910 960,950 Q1440,990 1920,940 L1920,1080 L0,1080 Z" fill="#0a0414"/>
</svg>
