<svg xmlns="http://www.w3.org/2000/svg" viewBox="0 0 900 420" width="900" height="420">
	<defs>
		<linearGradient id="logoGold" x1="0" y1="0" x2="0" y2="1">
			<stop offset="0%" stop-color="#fff8d4"/>
			<stop offset="50%" stop-color="#ffd147"/>
			<stop offset="100%" stop-color="#5a3a08"/>
		</linearGradient>
		<linearGradient id="ribbon" x1="0" y1="0" x2="0" y2="1">
			<stop offset="0%" stop-color="#3a1430"/>
			<stop offset="100%" stop-color="#1a0a18"/>
		</linearGradient>
		<linearGradient id="steelLogo" x1="0" y1="0" x2="0" y2="1">
			<stop offset="0%" stop-color="#ffffff"/>
			<stop offset="50%" stop-color="#a8b2c0"/>
			<stop offset="100%" stop-color="#3a4250"/>
		</linearGradient>
		<radialGradient id="logoAura" cx="50%" cy="50%" r="50%">
			<stop offset="0%" stop-color="#ffd147" stop-opacity="0.55"/>
			<stop offset="100%" stop-color="#ffd147" stop-opacity="0"/>
		</radialGradient>
	</defs>
	<ellipse cx="450" cy="210" rx="440" ry="190" fill="url(#logoAura)"/>
	<g fill="#7df0ff" opacity="0.7">
		<path d="M120,60 L150,140 L120,140 L170,260 L130,180 L160,180 Z"/>
		<path d="M780,60 L750,140 L780,140 L730,260 L770,180 L740,180 Z"/>
	</g>
	<path d="M40,60 L860,60 L820,150 L860,240 L40,240 L80,150 Z" fill="url(#ribbon)" stroke="url(#logoGold)" stroke-width="6"/>
	<path d="M60,80 L840,80 L808,150 L840,220 L60,220 L92,150 Z" fill="none" stroke="url(#logoGold)" stroke-width="1.5" stroke-opacity="0.65"/>
	<text x="450" y="120" text-anchor="middle" font-family="serif" font-weight="800" font-size="48" fill="url(#logoGold)" stroke="#3a1006" stroke-width="2.5" paint-order="stroke">HAMMER OF</text>
	<text x="450" y="210" text-anchor="middle" font-family="serif" font-weight="900" font-size="100" fill="url(#logoGold)" stroke="#3a1006" stroke-width="3.5" paint-order="stroke">THOR</text>
	<g transform="translate(450 310)">
		<ellipse cx="0" cy="0" rx="140" ry="42" fill="#3a1430" stroke="url(#logoGold)" stroke-width="5"/>
		<ellipse cx="0" cy="0" rx="128" ry="32" fill="none" stroke="url(#logoGold)" stroke-width="1.5" stroke-opacity="0.6"/>
		<text y="16" text-anchor="middle" font-family="serif" font-weight="900" font-size="56" fill="url(#logoGold)" stroke="#3a1006" stroke-width="2.5" paint-order="stroke">1000</text>
	</g>
	<g transform="translate(110 150) rotate(-25)">
		<rect x="-7" y="-12" width="14" height="100" fill="#5a3a18" stroke="#1a0a04" stroke-width="2"/>
		<rect x="-50" y="-60" width="100" height="48" rx="4" fill="url(#steelLogo)" stroke="#1a1a22" stroke-width="2.5"/>
		<rect x="-44" y="-54" width="14" height="36" fill="#fff8d4" fill-opacity="0.3"/>
	</g>
	<g transform="translate(790 150) rotate(25)">
		<rect x="-7" y="-12" width="14" height="100" fill="#5a3a18" stroke="#1a0a04" stroke-width="2"/>
		<rect x="-50" y="-60" width="100" height="48" rx="4" fill="url(#steelLogo)" stroke="#1a1a22" stroke-width="2.5"/>
		<rect x="-44" y="-54" width="14" height="36" fill="#fff8d4" fill-opacity="0.3"/>
	</g>
	<g fill="#fff8d4">
		<circle cx="220" cy="60" r="3"/>
		<circle cx="680" cy="60" r="3"/>
		<circle cx="180" cy="260" r="2"/>
		<circle cx="720" cy="260" r="2"/>
	</g>
</svg>
