<svg xmlns="http://www.w3.org/2000/svg" viewBox="0 0 300 300" width="300" height="300">
	<defs>
		<radialGradient id="mAura" cx="50%" cy="50%" r="55%">
			<stop offset="0%" stop-color="#7df0ff" stop-opacity="0.9"/>
			<stop offset="55%" stop-color="#4cc9f0" stop-opacity="0.25"/>
			<stop offset="100%" stop-color="#4cc9f0" stop-opacity="0"/>
		</radialGradient>
		<radialGradient id="mRing" cx="50%" cy="35%" r="70%">
			<stop offset="0%" stop-color="#fff8d4"/>
			<stop offset="50%" stop-color="#ffd147"/>
			<stop offset="100%" stop-color="#3a2208"/>
		</radialGradient>
		<linearGradient id="steel" x1="0" y1="0" x2="1" y2="1">
			<stop offset="0%" stop-color="#ffffff"/>
			<stop offset="40%" stop-color="#a8b2c0"/>
			<stop offset="100%" stop-color="#3a4250"/>
		</linearGradient>
		<linearGradient id="haft" x1="0" y1="0" x2="0" y2="1">
			<stop offset="0%" stop-color="#a8743a"/>
			<stop offset="100%" stop-color="#3a2208"/>
		</linearGradient>
	</defs>
	<circle cx="150" cy="150" r="148" fill="url(#mAura)"/>
	<circle cx="150" cy="150" r="135" fill="url(#mRing)"/>
	<circle cx="150" cy="150" r="118" fill="#0a1428"/>
	<g fill="#7df0ff" stroke="#fff" stroke-width="1.5">
		<path d="M70,80 L100,130 L80,130 L120,200 L95,150 L110,150 Z" opacity="0.85"/>
		<path d="M230,80 L200,130 L220,130 L180,200 L205,150 L190,150 Z" opacity="0.85"/>
	</g>
	<rect x="138" y="120" width="24" height="130" fill="url(#haft)" stroke="#1a0a04" stroke-width="2.5"/>
	<rect x="134" y="240" width="32" height="18" fill="#a8743a" stroke="#1a0a04" stroke-width="2.5"/>
	<rect x="138" y="160" width="24" height="6" fill="#3a1a06"/>
	<rect x="138" y="180" width="24" height="6" fill="#3a1a06"/>
	<rect x="138" y="200" width="24" height="6" fill="#3a1a06"/>
	<rect x="62" y="78" width="176" height="68" rx="6" fill="url(#steel)" stroke="#1a1a22" stroke-width="3"/>
	<rect x="72" y="86" width="22" height="50" fill="#fff8d4" fill-opacity="0.25"/>
	<g fill="#3a1a06" font-family="serif" font-weight="900" font-size="28">
		<text x="120" y="125" text-anchor="middle">ᚦ</text>
		<text x="180" y="125" text-anchor="middle">ᛟ</text>
	</g>
</svg>
