<svg xmlns="http://www.w3.org/2000/svg" viewBox="0 0 300 300" width="300" height="300">

	<defs>
		<radialGradient id="aura" cx="50%" cy="50%" r="55%">
			<stop offset="0%" stop-color="#4cc9f0" stop-opacity="0.9"/>
			<stop offset="55%" stop-color="#4cc9f0" stop-opacity="0.25"/>
			<stop offset="100%" stop-color="#4cc9f0" stop-opacity="0"/>
		</radialGradient>
		<radialGradient id="goldRing" cx="50%" cy="35%" r="70%">
			<stop offset="0%" stop-color="#fff8d4"/>
			<stop offset="40%" stop-color="#ffd147"/>
			<stop offset="80%" stop-color="#a8741a"/>
			<stop offset="100%" stop-color="#3a2208"/>
		</radialGradient>
		<radialGradient id="ringInside" cx="50%" cy="50%" r="55%">
			<stop offset="0%" stop-color="#1a0a14"/>
			<stop offset="80%" stop-color="#0a0408"/>
			<stop offset="100%" stop-color="#000"/>
		</radialGradient>
		<radialGradient id="gemFill" cx="38%" cy="32%" r="78%">
			<stop offset="0%" stop-color="#ffffff"/>
			<stop offset="18%" stop-color="#8de8ff"/>
			<stop offset="65%" stop-color="#0894d6"/>
			<stop offset="100%" stop-color="#1a0a14"/>
		</radialGradient>
		<radialGradient id="shine" cx="35%" cy="22%" r="38%">
			<stop offset="0%" stop-color="#ffffff" stop-opacity="0.95"/>
			<stop offset="100%" stop-color="#ffffff" stop-opacity="0"/>
		</radialGradient>
		<linearGradient id="rivet" x1="0" y1="0" x2="0" y2="1">
			<stop offset="0%" stop-color="#fff8d4"/>
			<stop offset="100%" stop-color="#7a5418"/>
		</linearGradient>
	</defs>
<circle cx="150" cy="150" r="148" fill="url(#aura)"/>

		<circle cx="150" cy="150" r="130" fill="url(#goldRing)"/>
		<circle cx="150" cy="150" r="110" fill="url(#ringInside)"/>
		<circle cx="150" cy="146" r="112" fill="none" stroke="#fff8d4" stroke-width="2" stroke-opacity="0.55"/>
		<circle cx="150" cy="154" r="112" fill="none" stroke="#3a2208" stroke-width="2" stroke-opacity="0.7"/>
<circle cx="266.0" cy="150.0" r="6" fill="url(#rivet)" stroke="#3a2208" stroke-width="1"/><circle cx="150.0" cy="266.0" r="6" fill="url(#rivet)" stroke="#3a2208" stroke-width="1"/><circle cx="34.0" cy="150.0" r="6" fill="url(#rivet)" stroke="#3a2208" stroke-width="1"/><circle cx="150.0" cy="34.0" r="6" fill="url(#rivet)" stroke="#3a2208" stroke-width="1"/>
<rect x="81.8" y="81.8" width="136.4" height="136.4" rx="10" fill="url(#gemFill)" stroke="#8de8ff" stroke-width="2.5"/>

			<path d="M81.8,81.8 L150,150 L218.2,81.8 Z" fill="#8de8ff" fill-opacity="0.32"/>
			<path d="M81.8,218.2 L150,150 L218.2,218.2 Z" fill="#000" fill-opacity="0.35"/>
			<path d="M81.8,81.8 L150,150 L81.8,218.2 Z" fill="#000" fill-opacity="0.22"/>
			<ellipse cx="122.72" cy="106.352" rx="32.736" ry="13.64" fill="url(#shine)"/>
</svg>
